<svg id="Layer_1" data-name="Layer 1" xmlns="http://www.w3.org/2000/svg" viewBox="0 0 29.61 29.61"><defs><style>.cls-1{fill:#dee3ff;}.cls-2{fill:#5284ff;}</style></defs><title>indefinido-ic</title><circle class="cls-1" cx="14.8" cy="14.8" r="14.8"/><path class="cls-2" d="M9.85,8.33a2.75,2.75,0,0,1,1.32-2.11,5.7,5.7,0,0,1,3.54-1,5.9,5.9,0,0,1,4,1.27,4,4,0,0,1,1.48,3.2A4.34,4.34,0,0,1,20,11,5.79,5.79,0,0,1,19.52,12a6,6,0,0,1-.66,1,9.77,9.77,0,0,1-.66.75l-.69.66-.5.42a3.08,3.08,0,0,0-1.11,1.43,7.73,7.73,0,0,0-.21,2.06c0,.64-.44.95-1.32.95a1.2,1.2,0,0,1-.94-.31,1.74,1.74,0,0,1-.28-1.15,5.23,5.23,0,0,1,1.59-4.13l.76-.62c.41-.35.71-.62.91-.82a3.34,3.34,0,0,0,.61-.89,2.65,2.65,0,0,0,.3-1.22,2,2,0,0,0-.73-1.65,3,3,0,0,0-2-.59,3.36,3.36,0,0,0-1.44.27,1.94,1.94,0,0,0-.79.57,3.14,3.14,0,0,1-.52.58,1,1,0,0,1-.69.27,1.4,1.4,0,0,1-.91-.33A1.14,1.14,0,0,1,9.85,8.33ZM12.76,23a1.89,1.89,0,0,1,.44-1.27,1.5,1.5,0,0,1,1.19-.53,1.78,1.78,0,0,1,1.27,3,1.67,1.67,0,0,1-1.27.55,1.46,1.46,0,0,1-1.19-.55A1.87,1.87,0,0,1,12.76,23Z" transform="translate(-0.2 -0.2)"/></svg>