<svg id="Layer_1" data-name="Layer 1" xmlns="http://www.w3.org/2000/svg" viewBox="0 0 29.17 29.07"><title>logout-ic</title><path d="M15,27.11H4.05A1.21,1.21,0,0,1,2.84,25.9V4.1A1.21,1.21,0,0,1,4.05,2.89H15A1.21,1.21,0,1,0,15,.47H4.05A3.64,3.64,0,0,0,.42,4.1V25.9a3.64,3.64,0,0,0,3.63,3.63H15a1.21,1.21,0,0,0,0-2.42Z" transform="translate(-0.42 -0.47)"/><path d="M29.22,14.14,21.86,6.87a1.21,1.21,0,0,0-1.7,1.73l5.26,5.19H11.32a1.21,1.21,0,0,0,0,2.42h14.1L20.16,21.4a1.22,1.22,0,0,0,0,1.72,1.2,1.2,0,0,0,.86.36,1.22,1.22,0,0,0,.85-.35l7.36-7.27a1.21,1.21,0,0,0,0-1.72Z" transform="translate(-0.42 -0.47)"/></svg>